<?xml version="1.0" encoding="UTF-8"?>
<!DOCTYPE svg PUBLIC "-//W3C//DTD SVG 1.1//EN" "http://www.w3.org/Graphics/SVG/1.1/DTD/svg11.dtd">
<!-- Creator: CorelDRAW 2019 (64-Bit) -->
<svg xmlns="http://www.w3.org/2000/svg" xml:space="preserve" width="40mm" height="40mm" version="1.1" style="shape-rendering:geometricPrecision; text-rendering:geometricPrecision; image-rendering:optimizeQuality; fill-rule:evenodd; clip-rule:evenodd"
viewBox="0 0 4000 4000"
 xmlns:xlink="http://www.w3.org/1999/xlink">
 <defs>
  <style type="text/css">
   <![CDATA[
    .fil0 {fill:#FEFEFE}
    .fil1 {fill:#FEFEFE;fill-rule:nonzero}
   ]]>
  </style>
 </defs>
 <g id="Capa_x0020_1">
  <metadata id="CorelCorpID_0Corel-Layer"/>
  <g>
   <path class="fil0" d="M2124.34 725.75l-956.05 1.87c-322.82,0.84 -284.26,320.97 -62.67,325.07 331.69,1.9 294.84,342.75 -19.59,313.31l-358.97 -7.89c-238.77,-5.25 -211.42,319.63 -26.11,317.49l247.85 -2.84c316.68,-7.47 292.27,330.89 35.41,331.15l-110.6 0c-233.41,0 -213.51,295.86 41.03,296.2l214.69 0.3c258.8,0.36 257.87,309.53 -11.96,318.87 -221.84,0.02 -221.34,319.87 11.75,317.23l998.39 14.05c47.53,6.2 96.01,9.44 145.23,9.44 278.32,0 532.78,-102.22 727.85,-271.19l192.86 199.92 -13.98 79.15c-8.77,49.66 -1.62,112.32 34.71,147.32l373.47 359.98c36.33,35.01 94.68,33.94 129.72,-2.4l198.1 -205.53c35.02,-36.34 33.94,-94.69 -2.39,-129.71l-373.47 -359.98c-36.31,-35 -116.32,-38.33 -165.02,-25.23l-65.54 17.64 -191.64 -198.65c166.78,-194.5 267.59,-447.26 267.59,-723.58 0,-583.23 -448.88,-1061.67 -1019.99,-1108.51 -19.17,-1.57 -86.09,-8.96 -105.52,-9.52l-135.15 -3.96zm136.95 156.02c536.6,0 971.58,434.98 971.58,971.55 0,536.6 -434.98,971.58 -971.58,971.58 -536.57,0 -971.55,-434.98 -971.55,-971.58 0,-536.57 434.98,-971.55 971.55,-971.55z"/>
  </g>
  <rect class="fil0" x="258.32" y="741.92" width="581.6" height="325.06" rx="169.97" ry="162.53"/>
  <rect class="fil0" x="58.58" y="1995.19" width="526.77" height="325.06" rx="153.95" ry="162.53"/>
  <rect class="fil0" x="508.98" y="2613.98" width="358.36" height="325.06" rx="104.73" ry="162.53"/>
  <rect class="fil0" x="78.17" y="1366.62" width="397.58" height="306.07" rx="116.19" ry="153.03"/>
  <path class="fil1" d="M2172.07 1403.95l0 247.6c0,21.58 -0.88,39.86 -2.76,54.83 -1.76,15.08 -5.94,30.38 -12.44,45.8 -10.68,26.09 -28.4,46.35 -53.17,60.77 -24.77,14.53 -54.83,21.8 -90.28,21.8 -32.04,0 -58.79,-5.07 -80.15,-15.09 -21.46,-10.12 -38.64,-26.42 -51.85,-48.99 -6.83,-12 -12.44,-25.87 -16.73,-41.5 -4.3,-15.75 -6.39,-30.72 -6.39,-44.81 0,-15.08 4.18,-26.53 12.55,-34.57 8.37,-7.93 19.16,-11.89 32.26,-11.89 12.66,0 22.24,3.63 28.62,11.01 6.5,7.27 11.45,18.6 14.87,34.13 3.63,16.51 7.37,29.72 11,39.63 3.64,9.91 9.8,18.39 18.39,25.43 8.59,7.16 20.81,10.68 36.77,10.68 42.39,0 63.53,-31.04 63.53,-93.25l0 -261.58c0,-19.26 4.29,-33.8 12.77,-43.49 8.47,-9.68 20.03,-14.53 34.68,-14.53 14.75,0 26.53,4.85 35.23,14.53 8.69,9.69 13.1,24.12 13.1,43.49zm506.87 273.47c0,15.09 -3.64,31.38 -11.12,48.88 -7.38,17.51 -19.05,34.68 -35.01,51.53 -15.86,16.95 -36.22,30.6 -60.89,41.17 -24.77,10.46 -53.61,15.75 -86.53,15.75 -24.88,0 -47.56,-2.32 -68.04,-7.05 -20.36,-4.73 -38.97,-12.11 -55.59,-22.13 -16.63,-9.91 -32.04,-23.12 -46.02,-39.41 -12.44,-14.86 -23.12,-31.38 -31.93,-49.76 -8.81,-18.39 -15.41,-38.1 -19.82,-58.9 -4.4,-20.92 -6.6,-43.05 -6.6,-66.5 0,-37.98 5.5,-72.11 16.62,-102.17 11.01,-30.16 26.97,-55.92 47.56,-77.28 20.7,-21.36 44.81,-37.65 72.55,-48.88 27.75,-11.12 57.36,-16.74 88.74,-16.74 38.31,0 72.33,7.6 102.28,22.9 29.83,15.19 52.73,34.13 68.69,56.59 15.86,22.46 23.89,43.6 23.89,63.63 0,11.01 -3.96,20.59 -11.67,29.07 -7.7,8.37 -17.06,12.55 -28.07,12.55 -12.22,0 -21.47,-2.97 -27.52,-8.7 -6.17,-5.83 -12.99,-15.85 -20.48,-30.05 -12.55,-23.45 -27.19,-40.96 -44.04,-52.63 -16.95,-11.56 -37.65,-17.39 -62.42,-17.39 -39.41,0 -70.68,14.97 -94.02,44.8 -23.34,29.95 -35.01,72.45 -35.01,127.49 0,36.77 5.17,67.38 15.52,91.82 10.24,24.44 24.88,42.61 43.82,54.72 18.94,12 41.07,18.05 66.5,18.05 27.52,0 50.75,-6.82 69.8,-20.48 19.04,-13.65 33.35,-33.68 43.04,-60.22 4.08,-12.44 9.14,-22.57 15.2,-30.49 5.94,-7.82 15.63,-11.78 28.95,-11.78 11.45,0 21.25,3.96 29.39,12 8.15,7.92 12.23,17.83 12.23,29.61z"/>
  <path class="fil1" d="M2160.4 2274.84l-49.47 -183.21 -50.04 183.21c-3.92,13.95 -6.98,23.92 -9.25,29.97 -2.28,5.98 -6.34,11.46 -12.03,16.23 -5.7,4.76 -13.24,7.18 -22.71,7.18 -7.69,0 -13.95,-1.42 -18.86,-4.27 -4.98,-2.84 -8.97,-6.9 -12.03,-12.1 -3.06,-5.19 -5.55,-11.38 -7.47,-18.57 -2,-7.12 -3.71,-13.74 -5.27,-19.86l-50.82 -205.78c-3.06,-11.96 -4.63,-21.07 -4.63,-27.33 0,-7.9 2.78,-14.59 8.33,-20 5.55,-5.41 12.45,-8.12 20.64,-8.12 11.32,0 18.86,3.63 22.78,10.82 3.84,7.26 7.26,17.73 10.18,31.53l40.07 178.45 44.84 -166.99c3.35,-12.81 6.34,-22.56 8.97,-29.18 2.63,-6.69 6.98,-12.46 12.95,-17.3 5.98,-4.91 14.1,-7.33 24.35,-7.33 10.46,0 18.57,2.57 24.34,7.62 5.77,5.05 9.75,10.6 11.96,16.58 2.2,5.98 5.19,15.81 8.97,29.61l45.27 166.99 40.07 -178.45c1.92,-9.32 3.77,-16.65 5.48,-21.92 1.78,-5.27 4.77,-10.03 8.97,-14.16 4.27,-4.2 10.39,-6.27 18.5,-6.27 8.05,0 14.88,2.71 20.5,8.05 5.63,5.33 8.47,12.03 8.47,20.07 0,5.69 -1.49,14.8 -4.55,27.33l-50.89 205.78c-3.49,13.88 -6.41,24.06 -8.69,30.53 -2.27,6.48 -6.19,12.1 -11.67,16.94 -5.48,4.91 -13.24,7.33 -23.28,7.33 -9.46,0 -17.01,-2.34 -22.7,-7.11 -5.7,-4.7 -9.68,-10.04 -11.89,-15.95 -2.28,-5.9 -5.34,-16.01 -9.39,-30.32zm382.72 -62.28c0,17.01 -2.64,32.6 -7.91,46.91 -5.33,14.3 -12.95,26.62 -22.99,36.87 -9.96,10.32 -21.99,18.15 -35.87,23.63 -13.88,5.48 -29.54,8.25 -46.91,8.25 -17.29,0 -32.81,-2.77 -46.55,-8.32 -13.73,-5.55 -25.69,-13.53 -35.8,-23.92 -10.04,-10.32 -17.72,-22.56 -22.92,-36.66 -5.19,-14.16 -7.83,-29.75 -7.83,-46.83 0,-17.23 2.64,-33.03 7.9,-47.33 5.34,-14.31 12.89,-26.55 22.78,-36.73 9.89,-10.11 21.85,-17.94 35.87,-23.42 14.03,-5.48 29.54,-8.26 46.55,-8.26 17.23,0 32.89,2.78 46.91,8.33 14.02,5.55 26.05,13.52 36.09,23.85 10.03,10.25 17.65,22.49 22.85,36.72 5.19,14.17 7.83,29.83 7.83,46.91zm-57.23 0c0,-23.2 -5.13,-41.21 -15.3,-54.17 -10.25,-12.88 -23.92,-19.36 -41.15,-19.36 -11.17,0 -20.92,2.85 -29.39,8.62 -8.47,5.76 -15.02,14.3 -19.58,25.55 -4.62,11.24 -6.9,24.41 -6.9,39.36 0,14.88 2.28,27.9 6.76,39.01 4.56,11.1 10.96,19.64 19.36,25.55 8.4,5.91 18.37,8.82 29.75,8.82 17.23,0 30.9,-6.47 41.15,-19.5 10.17,-12.95 15.3,-30.96 15.3,-53.88zm315.18 0c0,17.01 -2.64,32.6 -7.91,46.91 -5.33,14.3 -12.95,26.62 -22.99,36.87 -9.96,10.32 -21.99,18.15 -35.87,23.63 -13.88,5.48 -29.54,8.25 -46.91,8.25 -17.29,0 -32.81,-2.77 -46.55,-8.32 -13.73,-5.55 -25.69,-13.53 -35.8,-23.92 -10.04,-10.32 -17.72,-22.56 -22.92,-36.66 -5.19,-14.16 -7.83,-29.75 -7.83,-46.83 0,-17.23 2.64,-33.03 7.9,-47.33 5.34,-14.31 12.89,-26.55 22.78,-36.73 9.89,-10.11 21.85,-17.94 35.87,-23.42 14.03,-5.48 29.54,-8.26 46.55,-8.26 17.23,0 32.89,2.78 46.91,8.33 14.02,5.55 26.05,13.52 36.09,23.85 10.03,10.25 17.65,22.49 22.85,36.72 5.19,14.17 7.83,29.83 7.83,46.91zm-57.23 0c0,-23.2 -5.13,-41.21 -15.3,-54.17 -10.25,-12.88 -23.92,-19.36 -41.15,-19.36 -11.17,0 -20.92,2.85 -29.39,8.62 -8.47,5.76 -15.02,14.3 -19.58,25.55 -4.62,11.24 -6.9,24.41 -6.9,39.36 0,14.88 2.28,27.9 6.76,39.01 4.56,11.1 10.96,19.64 19.36,25.55 8.4,5.91 18.37,8.82 29.75,8.82 17.23,0 30.9,-6.47 41.15,-19.5 10.17,-12.95 15.3,-30.96 15.3,-53.88z"/>
 </g>
</svg>
